<?xml version="1.0" encoding="utf-8"?>
<!-- Generator: Adobe Illustrator 25.3.1, SVG Export Plug-In . SVG Version: 6.00 Build 0)  -->
<svg version="1.1" xmlns="http://www.w3.org/2000/svg" xmlns:xlink="http://www.w3.org/1999/xlink" x="0px" y="0px"
	 viewBox="0 0 595.28 595.28" style="enable-background:new 0 0 595.28 595.28;" xml:space="preserve">
<style type="text/css">
	.st0{display:none;}
	.st1{display:inline;opacity:0.36;fill:#F5A272;}
	.st2{fill:#683C11;}
	.st3{fill:#F6A200;}
	.st4{fill:#FEE0BA;}
	.st5{opacity:0.77;fill:#BB692F;}
	.st6{opacity:0.6;fill:#BB692F;}
	.st7{fill:#936037;}
	.st8{fill:#CA9F7A;}
	.st9{fill:#CB6865;}
	.st10{fill:#CA9E67;}
	.st11{fill:#DDD7DA;}
	.st12{fill:#CDDDC9;}
	.st13{fill:#683C11;stroke:#683C11;stroke-miterlimit:10;}
	.st14{fill:#7D4E24;}
	.st15{fill:#B17F4A;}
	.st16{opacity:0.51;fill:#BB692F;}
	.st17{opacity:0.93;fill:#C48042;}
	.st18{fill:#C4814E;}
	.st19{fill:#C48042;}
	.st20{fill:#F59E38;}
	.st21{fill:#BF625F;}
</style>
<g id="Layer_1" class="st0">
	
</g>
<g id="Layer_2">
	<g id="Layer_3" class="st0">
		<rect x="0.49" class="st1" width="595.28" height="595.28"/>
	</g>
	<rect x="188.44" y="382.8" class="st2" width="228.66" height="86.61"/>
	<path class="st3" d="M531,595.28H65.25c6.94-14.08,28.35-52.84,75.09-77.78c26.55-14.16,51.97-18.91,70.88-20.21
		c1.17-0.08,2.31-0.14,3.42-0.2c8.39-0.42,15.3-0.17,20.2,0.16c4.44-31.63,8.9-63.27,13.34-94.9c0.34-2.4,0.67-4.79,1.01-7.19
		c2.51,0.35,5.03,0.69,7.54,1.04c13.8,1.9,27.59,3.81,41.39,5.71c13.09-1.81,26.18-3.61,39.26-5.42c1.26-0.17,2.52-0.35,3.78-0.52
		c1.97-0.27,3.93-0.54,5.9-0.81c0.15,1.03,0.29,2.05,0.43,3.08c0.11,0.8,0.23,1.61,0.34,2.41c0.8,5.67,1.59,11.35,2.39,17.02
		c3.73,26.53,7.46,53.05,11.19,79.58c6.06-0.4,15.2-0.69,26.4,0.25c18.58,1.57,42.83,6.53,68.1,20
		C502.65,542.44,524.06,581.2,531,595.28z"/>
	<path class="st4" d="M387.81,497.5c-0.08,0.2-0.16,0.39-0.25,0.59c-17.48,40.19-82.02,38.21-91.12,37.93
		c-4.77-0.14-28.89-0.89-50.78-9.35c-14.61-5.65-28.22-14.74-34.44-29.38c9.94-0.68,18.07-0.41,23.62-0.04
		c4.44-31.63,8.9-63.27,13.34-94.9c2.75-2.2,5.61-4.26,8.55-6.15c6.63-4.27,13.71-7.69,21.09-10.01c6.03-1.9,12.26-3.06,18.62-3.33
		c17.47-0.74,32.65,5.35,44.72,13.11c0.8,0.52,1.59,1.04,2.37,1.58c1.49,1.01,2.92,2.05,4.3,3.1c0.8,5.67,1.59,11.35,2.39,17.02
		c3.73,26.53,7.46,53.05,11.19,79.58C367.47,496.85,376.61,496.56,387.81,497.5z"/>
	<path class="st5" d="M255.94,595.28H65.25c6.94-14.08,28.35-52.84,75.09-77.78c26.55-14.16,51.97-18.91,70.88-20.21
		c1.17-0.08,2.31-0.14,3.42-0.2C228.41,529.82,242.17,562.55,255.94,595.28z"/>
	<path class="st6" d="M351.52,426.93c-20.28,8.83-45.18,23.77-62.4,50.07c-15.71,23.99-11.6,49.15-21.71,50.87
		c-10.18,1.73-27.13-20.16-30.82-43.1c-2.79-17.33,3.67-26.05,11.59-82.42c0.02-0.12,0.99-7.07,1.01-7.19
		c2.51,0.35,5.03,0.69,7.54,1.04c6.63-4.27,13.71-7.69,21.09-10.01c19.86,3.43,39.71,6.87,59.56,10.3c2.05,0.35,4.1,0.71,6.15,1.06
		c1.32,0.23,2.64,0.46,3.96,0.69C348.83,407.8,350.18,417.37,351.52,426.93z"/>
	<path class="st7" d="M430.88,527.06c-2.64,15.27-3.56,38.09,6.18,68.22h-68.62c-4.99-20.22-9.72-45.23-11.89-73.93
		c-3.02-39.95,0.53-70.81,3.45-96.1c2.49-21.51,6.5-46.71,13.12-74.62c2.82-13.12,5.25-28.6,6.28-46.03
		c1-16.87,0.5-32.06-0.66-45.09c-32.91-37.88-58.49-64.12-64.31-68.25c-2.29-1.62-4.64-3.21-4.64-3.21
		c-3.92-2.66-7.82-5.14-11.68-7.48c-29.43,35.06-58.87,70.13-88.31,105.19c7.88,37.13,15.75,74.25,23.63,111.37
		c-0.37,6.82-0.46,17.24,1.5,29.64c2.71,17.1,7.88,28.86,27.17,66.74c1.76,3.46,3.63,7.14,5.64,11.06
		c15.96,31.19,20.09,38.96,23.06,53.44c3.13,15.28,2.94,28.4,2.25,37.28h-70.87c-2.42-17.03-7.08-40.05-16.88-65.97
		c-13.52-35.76-23.8-42.55-31.5-73.69c-6.59-26.64-5.78-48.84-5.06-68.62c0.87-23.82,4.04-40.19,9-65.81
		c9.02-46.61,15.58-80.69,22.23-106.34c7.31-28.23,14.71-46.26,25.58-59.6c9.9-12.15,23.42-21.3,34.32-28.69
		c5.7-3.86,11.68-7.48,19.68-7.87c8.99-0.44,17.31,3.35,18.56,3.93c2.17,1.02,3.88,2.05,5.07,2.82c5.31-2.87,15.53-7.36,28.12-6.19
		c6.28,0.58,16.03,2.84,31.5,15.75c21.7,18.1,34.54,40.36,42.13,58.06c1.8,4.19,3.3,8.13,4.56,11.69
		c4.69,13.31,6.55,23.16,9.47,40.59c0,0.01,0.01,0.01,0.01,0.02c0.21,1.23,0.42,2.51,0.64,3.83c4.18,25.04,6.31,47.94,7.61,71.94
		c0.93,17.23,1.43,35.03,1.96,54.62c0.96,35.76,0.1,40.97,2.81,57.37c3.8,23.03,8.46,30.84,7.88,50.07
		C439.28,502.8,433.99,509.05,430.88,527.06z"/>
	<path class="st4" d="M379.97,336.09c-4.99,25.57-7.44,38.37-11.81,46.41c-4.08,7.5-8.82,12.11-13.36,16.88
		c-7.64,8.03-20.68,19.68-40.82,29.31c-6.67,2.69-12.25,3.28-15.78,3.38c-4.45,0.13-8.35-0.47-10.64-0.81
		c-2.59-0.39-5.45-0.97-8.51-1.81c-0.26-0.11-0.51-0.21-0.76-0.32c-0.46-0.19-0.93-0.39-1.4-0.6c0,0-1.42-0.63-2.76-1.24
		c-18.65-8.57-38.91-22.49-49.41-44.79c-4.72-10.02-7.08-22.15-11.81-46.41c-4.08-20.91-6.45-33.56-5.07-50.62
		c1.29-15.8,5.13-27.26,9.28-39.66c7.06-21.04,11.27-33.61,21.1-44.72c8.73-9.87,19.52-15.91,29.88-19.62
		c4.62-1.65,9.15-2.84,13.37-3.69c5.75-1.17,10.93-1.72,14.97-2c13.67,0.93,40.28,5.04,58.22,25.31
		c9.82,11.11,14.03,23.68,21.09,44.72c4.16,12.4,8,23.86,9.28,39.66C386.42,302.53,384.05,315.18,379.97,336.09z"/>
	<path id="nos1" class="st8" d="M276.17,343.24c-0.08,2.51,12,6.09,13.3,3.96c0.75-1.24-1.72-5.08-5.51-6.15
		C280.28,340,276.21,341.8,276.17,343.24z"/>
	<path id="nos2" class="st8" d="M320.08,343.24c0.08,2.51-12,6.09-13.3,3.96c-0.75-1.24,1.72-5.08,5.51-6.15
		C315.97,340,320.04,341.8,320.08,343.24z"/>
	<path class="st9" d="M334.49,376.23c-0.19-0.55-2.31,0.28-6.66,0c-0.79-0.05-2.36-0.22-4.32-0.59c-1.88-0.36-3.28-0.79-4.44-1.26
		c-4.76-1.92-5.24-2.71-8.75-3.58c-1.66-0.41-2.93-0.72-4.67-0.58c-2.32,0.18-2.82,0.98-5.78,1.2c-0.69,0.05-1.26,0.05-1.66,0.04
		c0,0,0,0,0,0c-0.03,0-0.06,0-0.09,0c-0.03,0-0.06,0-0.09,0c0,0,0,0,0,0c-0.41,0.01-0.98,0.01-1.66-0.04
		c-2.95-0.21-3.46-1.01-5.77-1.2c-1.74-0.14-3.01,0.17-4.67,0.58c-3.5,0.86-3.98,1.65-8.75,3.58c-1.16,0.47-2.56,0.9-4.44,1.26
		c-1.97,0.37-3.54,0.54-4.32,0.59c-4.35,0.28-6.47-0.55-6.66,0c-0.26,0.72,3.44,2.23,7.6,5.81c2.88,2.48,4.47,4.66,5.26,5.62
		c1.94,2.33,8.02,7.01,16,8.88c6.68,1.56,12.21,0.65,14.99,0c7.98-1.87,14.07-6.55,16.01-8.88c0.8-0.96,2.39-3.13,5.26-5.62
		C331.05,378.46,334.74,376.95,334.49,376.23z"/>
	<path class="st8" d="M260.06,374.06"/>
	<ellipse class="st10" cx="347.62" cy="282.72" rx="21.94" ry="16.5"/>
	<ellipse class="st10" cx="248.63" cy="282.72" rx="21.94" ry="16.5"/>
	<g>
		<path class="st4" d="M356.25,272.62c-16.95-4-32.42,10.41-35.25,13.12c5.79,3.55,16.88,9.04,30.38,7.5
			c7.33-0.84,19.5-4.22,19.88-9.56c0.09-1.34-0.58-2.4-1.38-3.61C366.14,274.46,359.01,273.28,356.25,272.62z"/>
		<path class="st4" d="M240,272.62c-6.68,1.58-15.33,6.42-15,11.06c0.38,5.34,12.54,8.73,19.88,9.56c13.5,1.54,24.58-3.95,30.38-7.5
			C272.42,283.03,256.95,268.63,240,272.62z"/>
	</g>
	<path class="st11" d="M348.22,273.19c-3.47,0.67-7.05,0.58-10.45,1.57c-0.31,0.09-0.61,0.14-0.9,0.18
		c-1.84,1.79-2.99,4.3-2.99,7.07c0,5.46,4.42,9.88,9.88,9.88c5.46,0,9.88-4.42,9.88-9.88C353.65,278.14,351.44,274.81,348.22,273.19
		z"/>
	<path class="st11" d="M258.9,275.28c-0.33,0.11-0.67,0.18-1.03,0.2c-0.66,0.15-1.33,0.12-1.99-0.09c-0.8-0.14-1.6-0.22-2.39-0.42
		c-0.13-0.03-0.24-0.09-0.36-0.14c-0.58-0.03-1.17-0.12-1.73-0.22c-0.84-0.16-1.65-0.55-2.41-0.91c-0.48-0.23-0.89-0.59-1.23-1
		c-3.59,1.48-6.13,5-6.13,9.13c0,5.46,4.42,9.88,9.88,9.88c5.46,0,9.88-4.42,9.88-9.88C261.38,279.3,260.44,277.02,258.9,275.28z"/>
	<circle class="st12" cx="346.13" cy="281.81" r="6.26"/>
	<circle class="st12" cx="250.12" cy="281.81" r="6.26"/>
	
		<ellipse transform="matrix(0.7071 -0.7071 0.7071 0.7071 -124.6293 259.9746)" class="st7" cx="251.5" cy="280.43" rx="6.06" ry="6.06"/>
	
		<ellipse transform="matrix(0.7071 -0.7071 0.7071 0.7071 -97.6038 325.2198)" class="st7" cx="343.77" cy="280.43" rx="6.06" ry="6.06"/>
	<path class="st13" d="M321,285.75c-0.34-0.52,8.87-11.22,23.43-13.23c8.9-1.23,16.36,1.26,20.67,3.16
		c3.73,2.23,6.96,3.26,9.34,3.79c1.9,0.42,3.48,0.57,3.47,0.75c-0.02,0.27-3.95,0.51-8.04-0.14c-4.13-0.66-5.81-1.76-9.23-2.9
		c0,0-4.62-1.48-12.52-1.67C333.66,275.17,321.38,286.32,321,285.75z"/>
	<path class="st13" d="M275.25,285.75c0.34-0.52-8.87-11.22-23.43-13.23c-8.9-1.23-16.36,1.26-20.67,3.16
		c-3.73,2.23-6.96,3.26-9.34,3.79c-1.9,0.42-3.48,0.57-3.47,0.75c0.02,0.27,3.95,0.51,8.04-0.14c4.13-0.66,5.81-1.76,9.23-2.9
		c0,0,4.62-1.48,12.52-1.67C262.59,275.17,274.87,286.32,275.25,285.75z"/>
	<path class="st14" d="M278.19,254.8c-0.06-0.07-0.12-0.13-0.18-0.2c-0.06-0.07-0.12-0.13-0.18-0.2c-0.13-0.1-0.25-0.21-0.38-0.32
		c-0.01-0.01-0.02-0.02-0.03-0.02c-0.17-0.09-0.34-0.19-0.51-0.3c-1.36-0.22-2.72-0.44-4.07-0.65c-8.73-1.41-17.45-2.81-26.18-4.21
		c-3.46-1.01-10.67-2.54-18.57,0.28c-6.7,2.39-11.77,7.15-11.25,8.15c0.65,1.23,9.13-4.37,21.38-3.09c3.13,0.33,5.36,0.99,7.08,1.49
		c7.96,2.32,18.4,5.22,32.67,9.04c0.89,0.23,1.8,0.47,2.72,0.72c-0.73-3.31-1.46-6.63-2.18-9.94
		C278.38,255.31,278.27,255.06,278.19,254.8z"/>
	<path class="st15" d="M278.19,254.8c-0.06-0.07-0.12-0.13-0.18-0.2c-0.06-0.07-0.12-0.13-0.18-0.2c-0.13-0.1-0.25-0.21-0.38-0.32
		c-0.01-0.01-0.02-0.02-0.03-0.02c-0.17-0.09-0.34-0.19-0.51-0.3c-1.36-0.22-2.72-0.44-4.07-0.65c1.72,3.89,3.43,7.78,5.13,11.66
		c0.89,0.23,1.8,0.47,2.72,0.72c-0.73-3.31-1.46-6.63-2.18-9.94C278.38,255.31,278.27,255.06,278.19,254.8z"/>
	<path class="st14" d="M318.06,254.8c0.06-0.07,0.12-0.13,0.18-0.2c0.06-0.07,0.12-0.13,0.18-0.2c0.13-0.1,0.25-0.21,0.38-0.32
		c0.01-0.01,0.02-0.02,0.03-0.02c0.17-0.09,0.34-0.19,0.51-0.3c1.36-0.22,2.72-0.44,4.07-0.65c8.73-1.41,17.45-2.81,26.18-4.21
		c3.46-1.01,10.67-2.54,18.57,0.28c6.7,2.39,11.77,7.15,11.25,8.15c-0.65,1.23-9.13-4.37-21.38-3.09c-3.13,0.33-5.36,0.99-7.08,1.49
		c-7.96,2.32-18.4,5.22-32.67,9.04c-0.89,0.23-1.8,0.47-2.72,0.72c0.73-3.31,1.46-6.63,2.18-9.94
		C317.87,255.31,317.98,255.06,318.06,254.8z"/>
	<path class="st15" d="M318.06,254.8c0.06-0.07,0.12-0.13,0.18-0.2c0.06-0.07,0.12-0.13,0.18-0.2c0.13-0.1,0.25-0.21,0.38-0.32
		c0.01-0.01,0.02-0.02,0.03-0.02c0.17-0.09,0.34-0.19,0.51-0.3c1.36-0.22,2.72-0.44,4.07-0.65c-1.72,3.89-3.43,7.78-5.13,11.66
		c-0.89,0.23-1.8,0.47-2.72,0.72c0.73-3.31,1.46-6.63,2.18-9.94C317.87,255.31,317.98,255.06,318.06,254.8z"/>
	<path class="st16" d="M279,429.44c-0.01-0.01-0.02-0.01-0.03-0.01c-0.22-0.1-0.45-0.2-0.68-0.3c-0.46-0.19-0.93-0.39-1.4-0.6
		c0,0-1.42-0.63-2.76-1.24c-18.65-8.57-38.91-22.49-49.41-44.79c-4.72-10.02-7.08-22.15-11.81-46.41
		c-4.08-20.91-6.45-33.56-5.07-50.62c1.29-15.8,5.13-27.26,9.28-39.66c7.06-21.04,11.27-33.61,21.1-44.72
		c8.73-9.87,19.52-15.91,29.88-19.62c4.62-1.65,9.15-2.84,13.37-3.69c-12.37,8.7-26.13,20.36-36.78,34.84
		c-6.33,8.6-13.74,21.18-15.19,23.63c-6.31,10.7-9.47,16.05-11.81,22.5c-2.36,6.5-5.68,16.95-3.38,36
		c3.99,32.96,15.54,58.68,17.37,62.68c3.9,8.52,8.67,19.38,17.38,32.32c13.02,19.33,27.46,32.78,38.5,41.51
		c-2.59-0.39-5.45-0.97-8.51-1.81C279.03,429.45,279.02,429.44,279,429.44z"/>
	<path d="M204.47,459.28"/>
	<path class="st17" d="M293.06,595.28c-2.81,0-5.62,0-8.43,0c-1.74-4.03-4.6-10.45-8.44-18.15c-34.34-68.98-62.69-71.8-84.53-120.01
		c-20.2-44.59-17.97-90.76-17.28-104.99c0.49-10.02,1.46-17.18,3.38-30.93c3.77-27.12,10.27-63.39,22.23-106.34
		c-7.44,34.35-8.13,63.24-7.32,83.27c0.58,14.37,4.43,85.99,35.72,133.32c1.58,2.39,4.1,6.04,7.42,11.26c0,0,2.85,4.5,5.52,8.99
		c8.97,15.1,13.9,30.28,25.5,50.44c0,0,6.18,10.74,12.41,23.04c0.58,1.15,1.5,2.99,2.57,5.35c1.12,2.46,2.4,5.46,3.69,8.93l0,0
		c1.21,3.04,5.22,13.57,7.11,28.11C293.96,578.08,293.79,587.52,293.06,595.28z"/>
	<path class="st18" d="M678.66,511.59"/>
	<path class="st18" d="M529.31,471.94"/>
	<path class="st19" d="M315.56,483.19"/>
	<path class="st19" d="M418.97,245.34C391.81,176.2,353.1,129.61,318.03,132.8c-4.65,0.43-9.62,1.76-14.84,4.45
		c5.25-6.29,14.65-15.36,28.12-18c6.28,0.58,16.03,2.84,31.5,15.75c21.7,18.1,34.54,40.36,42.13,58.06c1.8,4.19,3.3,8.13,4.56,11.69
		C414.19,218.06,416.05,227.91,418.97,245.34z"/>
	<path class="st19" d="M430.88,527.06c-2.64,15.27-3.56,38.09,6.18,68.22h-28.68c-8.1-26.89-7.39-47.69-5.07-62.03
		c3.56-21.94,12.16-32.74,11.81-60.75c-0.11-9.3-1.1-14.82-1.12-29.81c-0.02-17.44,1.29-30.95,2.81-44.44
		c3.2-28.33,7.36-57.09,10.42-77.12c0.93,17.23,1.43,35.03,1.96,54.62c0.96,35.76,0.1,40.97,2.81,57.37
		c3.8,23.03,8.46,30.84,7.88,50.07C439.28,502.8,433.99,509.05,430.88,527.06z"/>
	<path class="st20" d="M281.2,595.28c-4.71-12.57-9.77-22.57-14.01-30.03c-14.36-25.26-34.97-48.99-37.12-51.47
		c-1.62-1.86-6.35-7.25-12.29-15c-5.3-6.92-9.33-12.82-11.9-16.72c2.53,2.85,7.26,8.18,13.22,14.84
		c29.43,32.89,37.49,40.93,47.55,56.67c4.73,7.4,9.23,14.54,13.2,25.17c2.18,5.84,3.71,11.41,4.77,16.52"/>
	<path class="st20" d="M408.39,595.28c-4.21-20.47-3.8-36.75-2.55-48.12c1.53-13.87,8.27-55.91,8.86-61.16
		c0.23-2.06,0.55-5.04,0.8-8.99c0.26-4.05,1.13-17.69-0.71-31.38c-0.1-0.76-0.59-4.29-0.79-4.27c-0.18,0.02,0.01,2.81,0.05,6.91
		c0.02,2.32,0.02,5.23-0.05,8.77c0,0-0.16,7.66-0.7,15.33c-1.43,20.27-8.72,41.22-12.1,64.08c-0.57,3.86-1.46,10.88-1.28,20.01
		c0,0,0.1,4.22,0.5,8.4c1.23,12.75,5.8,26.12,7.33,30.42C407.96,595.28,408.18,595.28,408.39,595.28z"/>
	<path class="st21" d="M305.8,381.79c-3.13,0.02-5.74-0.02-7.59-0.05c-1.86,0.04-4.47,0.07-7.59,0.05
		c-9.4-0.05-16.68-0.52-16.7-0.49c-0.02,0.03,7.66,0.27,16.84,1.17c3.13,0.31,5.68,0.62,7.45,0.85c1.78-0.23,4.32-0.54,7.45-0.85
		c9.18-0.91,16.86-1.14,16.84-1.17C322.48,381.27,315.2,381.73,305.8,381.79z"/>
</g>
</svg>
